HIERARCHY
ROOT Hips
{
	OFFSET	0.00	0.00	0.00
	CHANNELS 6 Xposition Yposition Zposition Zrotation Xrotation Yrotation
	JOINT LeftUpLeg
	{
		OFFSET	 0.126116	-0.014019	-0.065224
		CHANNELS 3 Zrotation Xrotation Yrotation
		JOINT LeftLeg
		{
			OFFSET	 0.000000	 0.000000	 0.569914
			CHANNELS 3 Zrotation Xrotation Yrotation
			JOINT LeftFoot
			{
				OFFSET	 0.000000	 0.000000	 0.544423
				CHANNELS 3 Zrotation Xrotation Yrotation
				JOINT LeftToeBase
				{
					OFFSET	 0.000000	 0.000000	 0.207117
					CHANNELS 3 Zrotation Xrotation Yrotation
					End Site
					{
						OFFSET	 0.000000	 0.000000	 0.207117
					}
				}
			}
		}
	}
	JOINT RightUpLeg
	{
		OFFSET	-0.124023	-0.008373	-0.065224
		CHANNELS 3 Zrotation Xrotation Yrotation
		JOINT RightLeg
		{
			OFFSET	 0.000000	 0.000000	 0.570047
			CHANNELS 3 Zrotation Xrotation Yrotation
			JOINT RightFoot
			{
				OFFSET	 0.000000	 0.000000	 0.544354
				CHANNELS 3 Zrotation Xrotation Yrotation
				JOINT RightToeBase
				{
					OFFSET	 0.000000	 0.000000	 0.207540
					CHANNELS 3 Zrotation Xrotation Yrotation
					End Site
					{
						OFFSET	 0.000000	 0.000000	 0.207540
					}
				}
			}
		}
	}
	JOINT Spine
	{
		OFFSET	 0.000184	-0.007763	 0.117403
		CHANNELS 3 Zrotation Xrotation Yrotation
		JOINT Spine1
		{
			OFFSET	 0.000000	 0.000000	 0.137269
			CHANNELS 3 Zrotation Xrotation Yrotation
			JOINT Spine2
			{
				OFFSET	 0.000000	 0.000000	 0.156879
				CHANNELS 3 Zrotation Xrotation Yrotation
				JOINT LeftShoulder
				{
					OFFSET	 0.080501	-0.002496	 0.160144
					CHANNELS 3 Zrotation Xrotation Yrotation
					JOINT LeftArm
					{
						OFFSET	 0.000000	 0.000000	 0.164363
						CHANNELS 3 Zrotation Xrotation Yrotation
						JOINT LeftForeArm
						{
							OFFSET	 0.000000	 0.000000	 0.364576
							CHANNELS 3 Zrotation Xrotation Yrotation
							JOINT LeftHand
							{
								OFFSET	 0.000000	 0.000000	 0.360812
								CHANNELS 3 Zrotation Xrotation Yrotation
								JOINT LeftHandIndex1
								{
									OFFSET	 0.000000	 0.000000	 0.086006
									CHANNELS 3 Zrotation Xrotation Yrotation
									JOINT LeftHandIndex2
									{
										OFFSET	 0.000000	 0.000000	 0.047236
										CHANNELS 3 Zrotation Xrotation Yrotation
										JOINT LeftHandIndex3
										{
											OFFSET	-0.004284	-0.000551	 0.038166
											CHANNELS 3 Zrotation Xrotation Yrotation
											End Site
											{
												OFFSET	-0.004284	-0.000551	 0.038166
											}
										}
									}
								}
							}
						}
					}
				}
				JOINT Neck
				{
					OFFSET	 0.000000	 0.000000	 0.176489
					CHANNELS 3 Zrotation Xrotation Yrotation
					JOINT Head
					{
						OFFSET	 0.000000	-0.001747	 0.077940
						CHANNELS 3 Zrotation Xrotation Yrotation
						End Site
						{
							OFFSET	 0.000000	-0.001747	 0.077940
						}
					}
				}
				JOINT RightShoulder
				{
					OFFSET	-0.080363	 0.000306	 0.159706
					CHANNELS 3 Zrotation Xrotation Yrotation
					JOINT RightArm
					{
						OFFSET	 0.000000	 0.000000	 0.164196
						CHANNELS 3 Zrotation Xrotation Yrotation
						JOINT RightForeArm
						{
							OFFSET	 0.000000	 0.000000	 0.365611
							CHANNELS 3 Zrotation Xrotation Yrotation
							JOINT RightHand
							{
								OFFSET	 0.000000	 0.000000	 0.360648
								CHANNELS 3 Zrotation Xrotation Yrotation
								JOINT RightHandIndex1
								{
									OFFSET	 0.000000	 0.000000	 0.069977
									CHANNELS 3 Zrotation Xrotation Yrotation
									JOINT RightHandIndex2
									{
										OFFSET	 0.000000	 0.000000	 0.052305
										CHANNELS 3 Zrotation Xrotation Yrotation
										JOINT RightHandIndex3
										{
											OFFSET	 0.009002	-0.000782	 0.042196
											CHANNELS 3 Zrotation Xrotation Yrotation
											End Site
											{
												OFFSET	 0.009002	-0.000782	 0.042196
											}
										}
									}
								}
							}
						}
					}
				}
			}
		}
	}
}
MOTION
Frames:    13
Frame Time: 0.03333334
 0.000358	 0.076085	 1.273629	 0.155401	 0.416764	 0.139885	 4.120843	-1.740984	 179.845900	 3.148375	-11.594550	 1.749876	 4.354801	 71.406390	 1.230586	-2.385833	 28.452760	 0.000004	-4.121233	-2.153062	-179.879800	-3.140183	-11.963990	-1.790658	-4.386759	 71.428380	-1.219510	 2.384659	 28.388700	-0.000001	 7.103216	 2.964106	 0.140729	 11.836540	-1.296841	 0.919215	 14.206910	-1.531880	 1.134143	-96.855580	 86.735590	-170.910900	 12.091080	 1.915868	-6.709816	-4.245880	-0.921643	-0.251056	-17.629070	-18.256280	-4.554455	-3.812334	 37.924440	-2.927599	-2.450526	 36.184240	 0.754587	-1.378229	 35.397820	-2.634230	-0.000002	-3.783157	-0.089647	 3.526699	 0.823432	-0.025351	 104.097500	 88.275240	 160.879200	-12.297070	 2.928358	 8.184118	 4.452773	-0.477554	 0.392399	 18.705860	-19.264000	 9.134000	 6.437017	 35.671460	-0.771858	 2.830251	 35.756010	-7.813440	-2.350882	 35.473990	 5.254307
-0.000095	 0.089672	 1.275530	-0.038147	 8.042740	 1.727995	 4.533816	-22.119530	 174.171600	-1.676576	-40.155850	-0.212628	 0.121921	 84.680180	-0.610812	-2.385767	 28.468360	-0.000331	-2.468615	-23.005840	-178.759000	-0.121269	-41.013450	 0.009239	-0.269658	 85.597490	 0.524867	 2.407688	 17.424590	-0.223775	 7.209674	 7.706896	-0.812382	 12.498210	 4.930921	-2.539674	 15.202280	 3.014181	 0.609909	-115.676600	 89.397040	-153.546100	 56.047750	 59.829610	-78.153430	-3.648178	-4.369245	-20.887390	 4.749795	-20.135710	-5.681343	-3.812334	 37.924440	-2.927599	-2.450526	 36.184240	 0.754587	-1.378229	 35.397820	-2.634230	 0.456555	 2.629495	-0.629818	 4.483171	 6.578759	-0.910297	 94.719500	 86.905600	 171.576800	-53.477530	 70.174150	 71.750460	-3.210277	-12.983180	 25.862900	-20.860650	-20.942630	 10.253210	 6.437017	 35.671460	-0.771858	 2.830251	 35.756010	-7.813440	-2.350882	 35.473990	 5.254307
 0.000226	 0.090171	 1.274799	-0.053982	 8.051080	 1.779825	 4.511261	-22.288240	 174.128800	-1.728257	-40.480510	-0.268043	 0.010524	 84.786880	-0.554797	-2.385678	 28.488050	-0.000758	-2.457256	-23.170950	-178.766400	-0.093034	-41.263630	 0.040528	-0.395979	 85.688160	 0.688045	 2.407680	 17.649530	-0.219388	 7.181288	 7.705317	-0.860677	 12.455640	 4.813736	-2.547748	 15.154730	 2.868165	 0.627398	-115.629500	 89.393160	-153.578500	 55.894080	 59.417750	-77.988630	-3.646095	-4.259698	-21.157270	 4.336812	-20.178650	-5.685690	-3.812334	 37.924440	-2.927599	-2.450526	 36.184240	 0.754587	-1.378229	 35.397820	-2.634230	 0.449358	 2.560328	-0.602448	 4.470170	 6.529612	-0.941784	 94.719270	 86.896570	 171.563400	-53.392100	 69.879220	 71.823210	-3.217035	-12.962000	 26.045200	-20.663160	-20.986500	 10.256980	 6.437017	 35.671460	-0.771858	 2.830251	 35.756010	-7.813440	-2.350882	 35.473990	 5.254307
 0.000523	 0.090832	 1.273870	-0.069392	 8.041284	 1.813453	 4.500541	-22.511940	 174.093300	-1.748677	-40.828240	-0.295608	 0.089735	 84.895620	-0.660048	-2.385418	 28.546710	-0.002027	-2.439543	-23.349340	-178.768800	-0.078546	-41.546110	 0.067819	-0.526048	 85.779750	 0.848601	 2.407667	 17.805830	-0.216326	 7.154739	 7.718572	-0.897555	 12.409540	 4.697871	-2.552562	 15.100230	 2.720305	 0.644700	-115.436900	 89.383880	-153.751600	 55.695820	 58.977830	-77.801470	-3.661646	-4.137637	-21.452380	 3.888090	-20.234880	-5.691059	-3.812334	 37.924440	-2.927599	-2.450526	 36.184240	 0.754587	-1.378229	 35.397820	-2.634230	 0.440388	 2.468939	-0.584078	 4.453747	 6.496759	-0.983001	 94.725010	 86.889950	 171.543500	-53.259460	 69.550950	 71.865880	-3.239933	-12.967070	 26.283700	-20.469260	-21.045190	 10.262180	 6.437017	 35.671460	-0.771858	 2.830251	 35.756010	-7.813440	-2.350882	 35.473990	 5.254307
 0.000953	 0.091717	 1.272774	-0.096262	 8.033587	 1.828003	 4.512103	-22.812990	 174.068900	-1.780084	-41.213120	-0.316046	 0.188463	 85.011790	-0.775067	-2.385228	 28.588330	-0.002932	-2.427394	-23.558520	-178.746000	-0.064609	-41.872360	 0.094074	-0.663693	 85.876360	 1.013766	 2.407647	 17.948030	-0.213543	 7.131996	 7.751689	-0.923489	 12.362190	 4.584423	-2.552912	 15.037660	 2.572746	 0.661457	-115.147700	 89.371930	-154.014000	 55.446050	 58.530940	-77.613800	-3.659595	-4.031893	-21.784090	 3.478444	-20.305200	-5.697215	-3.812334	 37.924440	-2.927599	-2.450526	 36.184240	 0.754587	-1.378229	 35.397820	-2.634230	 0.430253	 2.357948	-0.572741	 4.430323	 6.474451	-1.006700	 94.735280	 86.884230	 171.516800	-53.061540	 69.193520	 71.858420	-3.269791	-12.994780	 26.578280	-20.273350	-21.119410	 10.269170	 6.437017	 35.671460	-0.771858	 2.830251	 35.756010	-7.813440	-2.350882	 35.473990	 5.254307
 0.001420	 0.092823	 1.271437	-0.137884	 8.046002	 1.836252	 4.538796	-23.145510	 174.046000	-1.815993	-41.672790	-0.332214	 0.302880	 85.146710	-0.898490	-2.385135	 28.610260	-0.003405	-2.417118	-23.828370	-178.713500	-0.054294	-42.276280	 0.119397	-0.821489	 85.987500	 1.195846	 2.407618	 18.100900	-0.210546	 7.108949	 7.811408	-0.945597	 12.306130	 4.465908	-2.547040	 14.960490	 2.416167	 0.678562	-114.776500	 89.353510	-154.345900	 55.106910	 58.088920	-77.407320	-3.549413	-3.993969	-22.182300	 3.230948	-20.396530	-5.703784	-3.812334	 37.924440	-2.927599	-2.450526	 36.184240	 0.754587	-1.378229	 35.397820	-2.634230	 0.416987	 2.221642	-0.565985	 4.396164	 6.456130	-1.004908	 94.751210	 86.876950	 171.478800	-52.778480	 68.785260	 71.804650	-3.299529	-13.047080	 26.951810	-20.061510	-21.216210	 10.278270	 6.437017	 35.671460	-0.771858	 2.830251	 35.756010	-7.813440	-2.350882	 35.473990	 5.254307
 0.001852	 0.094057	 1.269983	-0.182398	 8.068451	 1.844947	 4.578618	-23.472370	 174.027800	-1.855251	-42.159280	-0.343597	 0.418171	 85.286530	-1.016103	-2.385023	 28.633270	-0.003904	-2.407777	-24.141000	-178.681000	-0.053271	-42.716470	 0.138743	-0.983111	 86.101780	 1.373322	 2.407574	 18.261480	-0.207403	 7.083250	 7.890252	-0.967535	 12.246430	 4.351982	-2.541638	 14.879420	 2.266763	 0.694327	-114.371500	 89.332950	-154.709100	 54.707870	 57.735580	-77.206160	-3.335622	-4.051663	-22.608610	 3.224978	-20.498870	-5.709790	-3.812334	 37.924440	-2.927599	-2.450526	 36.184240	 0.754587	-1.378229	 35.397820	-2.634230	 0.401645	 2.080003	-0.557110	 4.360540	 6.436787	-0.988215	 94.769520	 86.868190	 171.433600	-52.462560	 68.374430	 71.754430	-3.316185	-13.115970	 27.357220	-19.865010	-21.339080	 10.272330	 6.437017	 35.671460	-0.771858	 2.830251	 35.756010	-7.813440	-2.350882	 35.473990	 5.254307
 0.002289	 0.095452	 1.268411	-0.230056	 8.098123	 1.853654	 4.629930	-23.815120	 174.014900	-1.901248	-42.672930	-0.352776	 0.531932	 85.432160	-1.128728	-2.384903	 28.659170	-0.004468	-2.397734	-24.501010	-178.647500	-0.064268	-43.191900	 0.151133	-1.147879	 86.220270	 1.544851	 2.407523	 18.442010	-0.203856	 7.054123	 7.986300	-0.995326	 12.182860	 4.241119	-2.535548	 14.799870	 2.123484	 0.709153	-113.938600	 89.312720	-155.102900	 54.281500	 57.410430	-77.036540	-3.125498	-4.138452	-23.077250	 3.277464	-20.610870	-5.715921	-3.812334	 37.924440	-2.927599	-2.450526	 36.184240	 0.754587	-1.378229	 35.397820	-2.634230	 0.389173	 1.937547	-0.547457	 4.328107	 6.411375	-0.951586	 94.789250	 86.856390	 171.381500	-52.126980	 67.964850	 71.730660	-3.313550	-13.197150	 27.786010	-19.671000	-21.456310	 10.284130	 6.437017	 35.671460	-0.771858	 2.830251	 35.756010	-7.813440	-2.350882	 35.473990	 5.254307
 0.002786	 0.097266	 1.266465	-0.287335	 8.144644	 1.855251	 4.695733	-24.245320	 174.004800	-1.960335	-43.295860	-0.363169	 0.662361	 85.607110	-1.256643	-2.384706	 28.704400	-0.005441	-2.383868	-24.973650	-178.606900	-0.087272	-43.779360	 0.160255	-1.347457	 86.361960	 1.745483	 2.407423	 18.683360	-0.199113	 7.014596	 8.112595	-1.025139	 12.106680	 4.112936	-2.524967	 14.711850	 1.960598	 0.725881	-113.458200	 89.287560	-155.537700	 53.773580	 57.051850	-76.888160	-3.022106	-4.207658	-23.680020	 3.239245	-20.750020	-5.723819	-3.812334	 37.924440	-2.927599	-2.450526	 36.184240	 0.754587	-1.378229	 35.397820	-2.634230	 0.380131	 1.774330	-0.544412	 4.295570	 6.370676	-0.892042	 94.812610	 86.838690	 171.313600	-51.727010	 67.500810	 71.751770	-3.280863	-13.301250	 28.298490	-19.458470	-21.601270	 10.297980	 6.437017	 35.671460	-0.771858	 2.830251	 35.756010	-7.813440	-2.350882	 35.473990	 5.254307
 0.003267	 0.099384	 1.264325	-0.349641	 8.207375	 1.848440	 4.742793	-24.740710	 173.993800	-2.014664	-43.970140	-0.381584	 0.801426	 85.795460	-1.400527	-2.384431	 28.764080	-0.006740	-2.365651	-25.527290	-178.562100	-0.111862	-44.425350	 0.171823	-1.561253	 86.514180	 1.961543	 2.407275	 18.977890	-0.193318	 6.968882	 8.258705	-1.043889	 12.026320	 3.976346	-2.508058	 14.625590	 1.788107	 0.743669	-113.018700	 89.262190	-155.926600	 53.232030	 56.707290	-76.753070	-3.091579	-4.227155	-24.372300	 3.056257	-20.902470	-5.732552	-3.812334	 37.924440	-2.927599	-2.450526	 36.184240	 0.754587	-1.378229	 35.397820	-2.634230	 0.376979	 1.586703	-0.549809	 4.267807	 6.322814	-0.816213	 94.835790	 86.815060	 171.236300	-51.311040	 67.035150	 71.844620	-3.209920	-13.416160	 28.838380	-19.250860	-21.759240	 10.312480	 6.437017	 35.671460	-0.771858	 2.830251	 35.756010	-7.813440	-2.350882	 35.473990	 5.254307
 0.003767	 0.101838	 1.262014	-0.418106	 8.302008	 1.813707	 4.749039	-25.315050	 174.004200	-2.098825	-44.702550	-0.445159	 0.726196	 86.000120	-1.369654	-2.384108	 28.834980	-0.008286	-2.314929	-26.153180	-178.513200	-0.119616	-45.136050	 0.216468	-1.533865	 86.679520	 1.963217	 2.407063	 19.328970	-0.186394	 6.920103	 8.433934	-1.048840	 11.942550	 3.829663	-2.482987	 14.541100	 1.601946	 0.763022	-112.644600	 89.236130	-156.241300	 52.655370	 56.375790	-76.620310	-3.244767	-4.231621	-25.158490	 2.820104	-21.068370	-5.741834	-3.812334	 37.924440	-2.927599	-2.450526	 36.184240	 0.754587	-1.378229	 35.397820	-2.634230	 0.380170	 1.371134	-0.554977	 4.246006	 6.264503	-0.734770	 94.857790	 86.784360	 171.149000	-50.861080	 66.575800	 71.985300	-3.090956	-13.538760	 29.405150	-19.043390	-21.930510	 10.327840	 6.437017	 35.671460	-0.771858	 2.830251	 35.756010	-7.813440	-2.350882	 35.473990	 5.254307
 0.004368	 0.104968	 1.259206	-0.505831	 8.440435	 1.754728	 4.762478	-26.050310	 174.045100	-2.201069	-45.603150	-0.518505	 0.847512	 86.250950	-1.542597	-2.383691	 28.924950	-0.010231	-2.260525	-26.923580	-178.477900	-0.148115	-46.019310	 0.252096	-1.759418	 86.882090	 2.208382	 2.406764	 19.725050	-0.178550	 6.866858	 8.677909	-1.050834	 11.849270	 3.656845	-2.443806	 14.449240	 1.379306	 0.786306	-112.324900	 89.204760	-156.480000	 51.966180	 56.016640	-76.470670	-3.458591	-4.239353	-26.140390	 2.549390	-21.271580	-5.752653	-3.812334	 37.924440	-2.927599	-2.450526	 36.184240	 0.754587	-1.378229	 35.397820	-2.634230	 0.393579	 1.097517	-0.574629	 4.224857	 6.183728	-0.600612	 94.879710	 86.740150	 171.038800	-50.274830	 66.082410	 72.126590	-2.893839	-13.682330	 30.072840	-18.806020	-22.139180	 10.346350	 6.437017	 35.671460	-0.771858	 2.830251	 35.756010	-7.813440	-2.350882	 35.473990	 5.254307
 0.004932	 0.107943	 1.256636	-0.591466	 8.574491	 1.706269	 4.796568	-26.749820	 174.088700	-2.319743	-46.433980	-0.590721	 1.036848	 86.482580	-1.782596	-2.383260	 29.016880	-0.012232	-2.232729	-27.637930	-178.457400	-0.149725	-46.841040	 0.288256	-2.056954	 87.068820	 2.527181	 2.406482	 20.049610	-0.172118	 6.825890	 8.928382	-1.060920	 11.773610	 3.500592	-2.409740	 14.372330	 1.176491	 0.807576	-112.147600	 89.178130	-156.575000	 51.350790	 55.723080	-76.341650	-3.633588	-4.263608	-27.030500	 2.357157	-21.457550	-5.762159	-3.812334	 37.924440	-2.927599	-2.450526	 36.184240	 0.754587	-1.378229	 35.397820	-2.634230	 0.413430	 0.841834	-0.598972	 4.206580	 6.096079	-0.460212	 94.894870	 86.693520	 170.935500	-49.724500	 65.659070	 72.230610	-2.703741	-13.805960	 30.661050	-18.605990	-22.346130	 10.345590	 6.437017	 35.671460	-0.771858	 2.830251	 35.756010	-7.813440	-2.350882	 35.473990	 5.254307
